<?xml version="1.0" encoding="UTF-8"?><svg id="Layer_1" xmlns="http://www.w3.org/2000/svg" viewBox="0 0 503.67 274.561"><defs><style>.cls-1{fill:#000;stroke-width:0px;}</style></defs><path class="cls-1" d="M270.794,0c-.167,1.807-.479,3.613-.48,5.42-.026,57.494-.021,114.988-.021,172.483v5.122c.437.087.875.175,1.313.262,30.17-52.756,60.34-105.513,90.763-158.711,10.376,6.219,20.449,12.257,31.098,18.639-30.035,53.217-59.908,106.147-89.781,159.078.245.311.49.622.735.933,51.824-30.674,103.648-61.348,155.848-92.244,6.183,10.957,12.207,21.632,18.434,32.667-52.164,30.896-104.079,61.643-155.993,92.391.072.319.143.638.215.958h180.746v37.501h-5.473c-58.661,0-117.322-.025-175.982.062-3.44.005-5.824-1.024-8.253-3.51-20.03-20.497-40.216-40.843-60.363-61.226-.454-.459-1.009-.819-1.842-1.485-8.152,8.135-16.286,16.173-24.332,24.298-13.013,13.141-25.929,26.379-39.012,39.45-1.257,1.256-3.4,2.304-5.134,2.307-60.327.111-120.654.086-180.981.068-.648,0-1.296-.16-2.298-.292v-36.842h180.565c.14-.411.281-.823.421-1.234-51.963-30.78-103.926-61.559-156.068-92.445,6.197-10.998,12.225-21.697,18.417-32.684,52.082,30.832,103.894,61.505,155.706,92.177.325-.228.65-.456.975-.683-29.886-52.962-59.773-105.924-89.855-159.233,10.783-6.258,21.252-12.332,32.214-18.694,30.101,53.299,60.059,106.342,90.016,159.386.368-.078.735-.156,1.103-.234,0-1.746,0-3.492,0-5.238,0-57.328-.003-114.655.013-171.983,0-2.155.188-4.31.289-6.465,12.333,0,24.667,0,37,0Z"/></svg>