<?xml version="1.0" encoding="UTF-8"?><svg id="Layer_1" xmlns="http://www.w3.org/2000/svg" viewBox="0 0 1807.236 405.09"><defs></defs><path class="cls-1" d="M0,13.471c1.591-.309,3.182-.888,4.774-.889,37.327-.019,74.684-.917,111.973.275,57.125,1.826,100.845,26.887,127.203,78.766,13.359,26.293,16.319,54.703,13.736,83.694-2.963,33.266-15.712,62.316-38.941,86.605-23.369,24.436-51.92,38.466-85.359,42.489-8.572,1.031-17.278,1.262-25.925,1.298-33.494.142-66.989.064-100.484.045-2.326-.001-4.652-.185-6.978-.284C0,208.137,0,110.804,0,13.471ZM42.18,264.518c26.902,0,53.207.294,79.5-.125,12.919-.206,25.298-3.813,36.931-9.52,42.703-20.949,64.904-65.063,56.884-114.976-8.465-52.685-50.24-87.396-103.609-87.491-21.485-.038-42.971-.006-64.456-.006h-5.251v212.119Z"/><path class="cls-1" d="M783.123,276.366v30.04h-38.768V1.134h38.614v117.912c1.474-1.059,2.45-1.515,3.096-2.258,35.847-41.188,109.296-45.886,152.484-2.884,26.927,26.811,36.18,59.492,32.935,96.282-3.152,35.742-19.697,64.187-49.274,84.64-21.126,14.609-45.054,18.229-70.098,16.223-26.738-2.141-49.428-12.608-66.965-33.338-.293-.346-.779-.53-2.024-1.346ZM856.369,272.971c43.14.281,74.088-30.394,74.329-73.673.246-44.146-30.449-75.94-72.63-77.097-39.124-1.073-74.946,30.705-74.961,74.914-.015,44.502,29.768,75.573,73.262,75.856Z"/><path class="cls-1" d="M1161.523,213.471c3.631,17.705,11.112,32.446,24.774,43.821,33.975,28.289,88.365,20.592,110.699-16.273,3.763-6.211,7.411-8.192,14.273-7.782,10.413.622,20.89.163,31.796.163-7.088,22.088-19.398,39.769-37.474,53.438-52.437,39.654-130.221,28.418-167.024-24.024-35.888-51.137-26.86-144.791,53.754-173.29,68.845-24.339,131.775,15.787,149.27,71.469,5.067,16.125,6.487,32.601,4.11,49.334-.167,1.179-2.014,2.426-3.354,3.036-1.105.502-2.619.107-3.952.107-56.813,0-113.626,0-170.439,0h-6.432ZM1304.996,178.299c-5.566-29.476-33.57-62.71-81.879-57.692-36.117,3.751-58.322,31.586-60.764,57.692h142.643Z"/><path class="cls-1" d="M419.561,164.471v-38.413h-125.212v-38.274h164.419v181.505h27.379v36.144h-62.923v-22.815c-3.291,3.083-5.898,5.747-8.731,8.145-20.111,17.022-43.595,22.275-69.122,18.632-25.741-3.673-46.113-16.664-56.898-40.511-22.461-49.666,10.169-98.406,56.616-103.129,22.607-2.299,45.584-.972,68.393-1.281,1.947-.026,3.895-.003,6.079-.003ZM419.548,200.635c-11.771,0-23.073-.107-34.371.031-10.311.126-20.699-.197-30.912.946-18.636,2.085-32.446,16.167-33.437,32.872-1.097,18.502,9.94,33.356,29.212,38.003,17.702,4.268,34.818,1.559,50.645-7.357,10.896-6.138,18.017-15.566,18.724-28.356.65-11.758.138-23.58.138-36.139Z"/><path class="cls-1" d="M1513.712,164.471v-38.419h-125.113v-38.303h164.379v181.758h27.543v35.794h-63.212v-23.644c-10.198,12.266-21.849,19.793-35.529,24.352-32.743,10.912-68.484,2.118-89.312-21.822-31.66-36.39-19.316-104.056,40.705-117.643,6.436-1.457,13.203-1.889,19.828-1.983,18.33-.26,36.665-.09,54.999-.09,1.792,0,3.584,0,5.713,0ZM1513.794,200.895c-1.343-.115-2.149-.244-2.956-.245-18.319-.011-36.647-.312-54.954.167-6.02.158-12.312,1.528-17.913,3.764-13.549,5.41-22.161,15.333-22.939,30.408-.812,15.721,6.342,27.224,20.343,34.283,18.426,9.29,50.039,5.162,65.656-8.393,7.205-6.254,12.152-14.015,12.622-23.578.587-11.943.141-23.936.141-36.407Z"/><path class="cls-1" d="M1615.505,0h38.924v177.378c11.475,0,22.268.119,33.052-.149,1.364-.034,2.94-1.893,3.976-3.245,23.503-30.653,46.944-61.353,70.401-92.042.59-.772,1.225-1.511,2.116-2.606,9.943,7.748,19.725,15.37,29.825,23.241-24.696,31.317-49.1,62.263-73.687,93.442,28.902,36.259,57.739,72.434,87.123,109.298-2.022.192-3.376.43-4.731.432-12.999.028-26-.091-38.997.094-3.207.046-5.134-1.056-7.044-3.548-21.485-28.023-43.119-55.933-64.598-83.961-2.01-2.624-4.005-3.87-7.422-3.785-9.78.243-19.57.085-29.879.085v90.771h-39.06V0Z"/><path class="cls-1" d="M602.87,255.438c6.342-15.131,12.185-29.029,17.996-42.941,16.851-40.344,33.723-80.679,50.463-121.069,1.274-3.075,2.79-4.185,6.191-4.123,12.807.234,25.621.094,39.556.094-46.248,106.214-92.196,211.741-138.329,317.691-12.091-5.528-23.682-10.827-35.746-16.342,3.935-8.881,7.742-17.497,11.569-26.103,8.175-18.382,16.278-36.798,24.625-55.101,1.384-3.035,1.263-5.382-.016-8.372-29.558-69.086-59.011-138.217-88.479-207.342-.513-1.204-.97-2.432-1.764-4.431,6.862,0,13.238,0,19.614,0,6.498,0,13.009.256,19.487-.099,3.703-.203,5.143,1.357,6.451,4.503,21.183,50.966,42.478,101.886,63.754,152.814,1.341,3.21,2.734,6.397,4.628,10.82Z"/><path class="cls-1" d="M1111.672,87.697v39.337h-68.643v178.418h-39.044V87.697h107.687Z"/></svg>